<svg id="Layer_1" data-name="Layer 1" xmlns="http://www.w3.org/2000/svg" viewBox="0 0 400 400"><defs><style>.cls-1{fill:#fff;}</style></defs><title>Artboard 1</title><path class="cls-1" d="M261.39,156.57A155.49,155.49,0,0,1,277,164.35l35.48-89.71h.83V194.56a136.19,136.19,0,0,1,23.53,41.25,159,159,0,0,1,4.74,15.56V34.31H300L253.2,153.38C256,154.36,258.72,155.42,261.39,156.57Z"/><path class="cls-1" d="M184.4,331.19H211l53.61-135.55a109.28,109.28,0,0,0-18.81-11.83c-1.26-.63-2.56-1.22-3.86-1.79L197.71,294.6,153.26,182c-1.34.59-2.67,1.2-4,1.85a109.3,109.3,0,0,0-18.73,11.77Z"/><path class="cls-1" d="M58.27,235.82A136.17,136.17,0,0,1,81.7,194.68v-120h.83l35.61,89.69a155.42,155.42,0,0,1,15.57-7.76c2.7-1.16,5.46-2.23,8.27-3.22l-47-119H53.43V251.76A159.17,159.17,0,0,1,58.27,235.82Z"/></svg>