<?xml version="1.0" encoding="UTF-8"?>
<svg width="32px" height="32px" viewBox="0 0 32 32" version="1.1" xmlns="http://www.w3.org/2000/svg" xmlns:xlink="http://www.w3.org/1999/xlink">
    <!-- Generator: Sketch 41.2 (35397) - http://www.bohemiancoding.com/sketch -->
    <title>Moon</title>
    <desc>Created with Sketch.</desc>
    <defs></defs>
    <g id="Page-1" stroke="none" stroke-width="1" fill="none" fill-rule="evenodd">
        <g id="Moon">
            <ellipse id="Oval" fill="#D8D8D8" cx="15.5" cy="15.5675676" rx="15.5" ry="15.5675676"></ellipse>
            <path d="M8.09977533,29 C10.1375944,29 11.3795956,27.7525847 11.3795956,25.7058824 C11.3795956,23.65918 9.72761685,22 7.68979779,22 C5.65197874,22 4,23.65918 4,25.7058824 C4,26 4,26 4.5,26.5 C5,27 4.81334111,26.8145222 5,27 C5.29478985,27.2929246 5.59564252,27.7304283 6,28 C7.5,29 7.39839533,28.8255874 7.68979779,29 C8.04434893,29.2122089 7.59450239,29 8.09977533,29 Z" id="Oval-2" fill="#ACACAC"></path>
            <ellipse id="Oval-2" fill="#ACACAC" cx="22.7222222" cy="13.7297297" rx="1.72222222" ry="1.72972973"></ellipse>
            <ellipse id="Oval-2" fill="#ACACAC" cx="16.7222222" cy="20.7297297" rx="1.72222222" ry="1.72972973"></ellipse>
            <ellipse id="Oval-2" fill="#ACACAC" cx="13.1527778" cy="5.16216216" rx="2.15277778" ry="2.16216216"></ellipse>
            <ellipse id="Oval-2" fill="#ACACAC" cx="5.01388889" cy="13.027027" rx="3.01388889" ry="3.02702703"></ellipse>
            <path d="M16.0676117,31.1351351 C16.3531629,31.1351351 17.8601905,31.2533565 20.0676117,30.6351351 C22.2750329,30.0169138 24.290536,29.0309567 26.0676117,27.6351351 C29.5997228,24.8608038 31.5676117,19.640206 31.5676117,15.5675676 C31.5676117,6.96983741 24.6280253,-3.90798505e-14 16.0676117,-3.90798505e-14 C15.2796813,-3.90798505e-14 14.5566353,0.0756418326 14.0676117,0.135135135 C13.884458,0.157417127 13.1291288,0.577286224 13.0676117,0.635135135 C12.2421503,1.41137542 19.1800068,2.04863198 22.7032019,5.18918919 C26.2263971,8.32974639 27.6926117,11.9874886 27.6926117,15.5203883 C27.6926117,18.1276376 26.0021315,21.9050872 23.3870562,24.2162162 C21.958931,25.4783525 20.189561,26.7322013 18.650945,27.6756757 C17.4970455,28.3832432 15.0238145,30.4568927 14.5819245,30.7271486 C13.9148339,31.1351351 15.0760824,31.1351351 16.0676117,31.1351351 Z" id="Oval" fill="#ACACAC"></path>
        </g>
    </g>
</svg>