<?xml version="1.0" encoding="UTF-8"?>
<svg width="29px" height="30px" viewBox="0 0 29 30" version="1.1" xmlns="http://www.w3.org/2000/svg" xmlns:xlink="http://www.w3.org/1999/xlink">
    <!-- Generator: Sketch 41.2 (35397) - http://www.bohemiancoding.com/sketch -->
    <title>Group 2</title>
    <desc>Created with Sketch.</desc>
    <defs>
        <rect id="path-1" x="3" y="4" width="7" height="2"></rect>
        <mask id="mask-2" maskContentUnits="userSpaceOnUse" maskUnits="objectBoundingBox" x="0" y="0" width="7" height="2" fill="white">
            <use xlink:href="#path-1"></use>
        </mask>
        <rect id="path-3" x="3" y="12" width="12" height="2"></rect>
        <mask id="mask-4" maskContentUnits="userSpaceOnUse" maskUnits="objectBoundingBox" x="0" y="0" width="12" height="2" fill="white">
            <use xlink:href="#path-3"></use>
        </mask>
        <rect id="path-5" x="3" y="16" width="12" height="2"></rect>
        <mask id="mask-6" maskContentUnits="userSpaceOnUse" maskUnits="objectBoundingBox" x="0" y="0" width="12" height="2" fill="white">
            <use xlink:href="#path-5"></use>
        </mask>
        <rect id="path-7" x="3" y="20" width="12" height="2"></rect>
        <mask id="mask-8" maskContentUnits="userSpaceOnUse" maskUnits="objectBoundingBox" x="0" y="0" width="12" height="2" fill="white">
            <use xlink:href="#path-7"></use>
        </mask>
    </defs>
    <g id="Page-1" stroke="none" stroke-width="1" fill="none" fill-rule="evenodd">
        <g id="Group-2">
            <rect id="Rectangle-3" fill="#F0F0F0" x="0" y="0" width="21" height="30"></rect>
            <use id="Rectangle-4" stroke="#979797" mask="url(#mask-2)" stroke-width="2" fill="#D8D8D8" xlink:href="#path-1"></use>
            <use id="Rectangle-4" stroke="#979797" mask="url(#mask-4)" stroke-width="2" fill="#D8D8D8" xlink:href="#path-3"></use>
            <use id="Rectangle-4" stroke="#979797" mask="url(#mask-6)" stroke-width="2" fill="#D8D8D8" xlink:href="#path-5"></use>
            <use id="Rectangle-4-Copy" stroke="#979797" mask="url(#mask-8)" stroke-width="2" fill="#D8D8D8" xlink:href="#path-7"></use>
            <path d="M26.4888306,5 L27.2312927,6.69024963 L27.9776611,8.84912038 L25,8.84912038 C25,8.84912038 25.4296265,7.62743835 25.6800842,6.92456019 C25.930542,6.22168202 26.4888306,5 26.4888306,5 Z" id="Triangle" fill="#000000"></path>
            <polygon id="Rectangle-8" fill="#DBD4BD" points="25.7920837 7 27.2390747 7 28.0781751 9.2 25 9.2"></polygon>
            <rect id="Rectangle-6" fill="#F8E81C" x="25" y="9" width="3" height="19.4995431"></rect>
            <rect id="Rectangle-7" fill="#F76FB5" x="25" y="28" width="3" height="2"></rect>
        </g>
    </g>
</svg>